# xmcd
#
# Track frame offsets:
#	150
#	17022
#	33617
#	52179
#	70352
#	87337
#	105749
#	130790
#	146572
#	162859
#	180798
#
# Disc length: 2733 seconds
#
# Revision: 0
# Processed by: cddbd v1.5.2PL0 Copyright (c) Steve Scherf et al.
# Submitted via: audiograbber 1.83.01
#
DISCID=920aab0b
DTITLE=Jason Spooner - The Flame You Follow
DYEAR=2007
DGENRE=Folk
TTITLE0=Black And Blue
TTITLE1=All That We Know
TTITLE2=Spaceship
TTITLE3=The Flame You Follow
TTITLE4=Hazel
TTITLE5=Fight The Fire
TTITLE6=Meant To Be
TTITLE7=Simple Life
TTITLE8=Mirror This Morning
TTITLE9=Slippery People
TTITLE10=Hover
EXTD=
EXTT0=
EXTT1=
EXTT2=
EXTT3=
EXTT4=
EXTT5=
EXTT6=
EXTT7=
EXTT8=
EXTT9=
EXTT10=
PLAYORDER=
